REM MD5 79c57ada6a822befdbd9e7caafb6ae08
FILE "DemoDemo PlayStation Vol. 14 (Japan).bin" BINARY
  TRACK 01 MODE2/2352
    INDEX 01 00:00:00
  TRACK 02 AUDIO
    INDEX 00 35:23:19
    INDEX 01 35:25:19
  TRACK 03 AUDIO
    INDEX 00 35:40:11
    INDEX 01 35:42:11
  TRACK 04 AUDIO
    INDEX 00 37:40:44
    INDEX 01 37:42:44
  TRACK 05 AUDIO
    INDEX 00 39:13:12
    INDEX 01 39:15:12
  TRACK 06 AUDIO
    INDEX 00 41:13:01
    INDEX 01 41:15:01
REM LEADOUT 44:01:35
